<svg width="41" height="40" viewBox="0 0 41 40" fill="none" xmlns="http://www.w3.org/2000/svg">
<g clip-path="url(#clip0_105_119)">
<path d="M20.0284 0.000460549C31.1142 -0.00808111 39.9323 8.96067 40.0128 19.7952C40.097 31.0451 31.0862 40.1078 19.738 39.9992C8.97731 39.8961 -0.125057 31.0592 0.00123766 19.6908C0.120821 8.9747 8.9767 -0.0636019 20.0284 0.000460549ZM3.43438 19.9562C3.36116 29.1007 10.7637 36.5008 19.8356 36.582C24.2956 36.6216 28.218 35.1006 31.4382 32.0012C35.3997 28.1879 37.0666 23.4479 36.487 18.0185C36.0983 14.3822 34.562 11.1742 31.9849 8.52565C28.7696 5.22125 24.8544 3.51719 20.2358 3.42384C10.8955 3.2347 3.35506 10.9185 3.43438 19.9562Z" fill="#007A83"/>
<path d="M19.2321 20.0094C20.0814 20.8721 20.8892 21.6945 21.6988 22.5152C22.0753 22.8971 22.4639 23.268 22.8312 23.6579C23.3645 24.2241 23.5371 24.8812 23.2339 25.6164C22.9514 26.3003 22.4047 26.6585 21.6836 26.7158C21.1741 26.7561 20.7257 26.5493 20.3676 26.1881C18.9527 24.7622 17.5397 23.3339 16.137 21.8959C15.7935 21.5438 15.4366 21.1839 15.1864 20.7672C14.8252 20.1656 14.9582 19.3474 15.4433 18.8453C16.3109 17.9472 17.1998 17.0698 18.0753 16.1797C18.777 15.4664 19.4878 14.7612 20.1674 14.0272C21.1369 12.9802 22.5878 13.1803 23.1625 14.2749C23.5268 14.968 23.4462 15.7178 22.8928 16.2987C21.7806 17.4658 20.6397 18.6061 19.5097 19.7562C19.4316 19.8361 19.345 19.9069 19.2321 20.0094Z" fill="#007A83"/>
</g>
<defs>
<clipPath id="clip0_105_119">
<rect width="40.0134" height="40" fill="white"/>
</clipPath>
</defs>
</svg>
