<svg width="41" height="40" viewBox="0 0 41 40" fill="none" xmlns="http://www.w3.org/2000/svg">
<g clip-path="url(#clip0_37_411)">
<path d="M19.985 39.9995C8.89918 40.0081 0.081131 31.0393 0.000595093 20.2048C-0.0835991 8.95486 8.92724 -0.107838 20.2755 0.000762939C31.0361 0.103874 40.1385 8.94083 40.0122 20.3092C39.8926 31.0253 31.0367 40.0636 19.985 39.9995ZM36.5791 20.0438C36.6523 10.8993 29.2497 3.49918 20.1778 3.41803C15.7179 3.37838 11.7954 4.8994 8.5752 7.99881C4.6137 11.812 2.94686 16.5521 3.52647 21.9815C3.91512 25.6178 5.4514 28.8258 8.02854 31.4743C11.2439 34.7788 15.159 36.4828 19.7776 36.5762C29.1179 36.7653 36.6584 29.0815 36.5791 20.0438Z" fill="#007A83"/>
<path d="M20.7813 19.9906C19.932 19.1279 19.1242 18.3055 18.3146 17.4848C17.9381 17.1029 17.5495 16.732 17.1822 16.3421C16.649 15.7759 16.4763 15.1188 16.7795 14.3836C17.062 13.6997 17.6087 13.3415 18.3298 13.2842C18.8393 13.2439 19.2877 13.4507 19.6459 13.8119C21.0607 15.2378 22.4738 16.6661 23.8764 18.1041C24.2199 18.4562 24.5768 18.8161 24.827 19.2328C25.1882 19.8344 25.0552 20.6526 24.5701 21.1547C23.7025 22.0528 22.8136 22.9302 21.9381 23.8203C21.2364 24.5336 20.5257 25.2388 19.846 25.9728C18.8765 27.0198 17.4256 26.8197 16.8509 25.7251C16.4867 25.032 16.5672 24.2822 17.1206 23.7013C18.2328 22.5342 19.3738 21.3939 20.5037 20.2438C20.5818 20.1639 20.6684 20.0931 20.7813 19.9906Z" fill="#007A83"/>
</g>
<defs>
<clipPath id="clip0_37_411">
<rect width="40.0134" height="40" fill="white" transform="translate(40.0134 40) rotate(-180)"/>
</clipPath>
</defs>
</svg>
